<?xml version="1.0" encoding="UTF-8" standalone="no"?><!DOCTYPE svg PUBLIC "-//W3C//DTD SVG 1.1//EN" "http://www.w3.org/Graphics/SVG/1.1/DTD/svg11.dtd"><svg width="100%" height="100%" viewBox="0 0 16667 5000" version="1.1" xmlns="http://www.w3.org/2000/svg" xmlns:xlink="http://www.w3.org/1999/xlink" xml:space="preserve" xmlns:serif="http://www.serif.com/" style="fill-rule:evenodd;clip-rule:evenodd;stroke-linejoin:round;stroke-miterlimit:2;"><g><g><g><path d="M5928.58,1974.42l561.542,-0c68.583,-0 128.333,7.291 179.208,21.875c50.875,14.583 93.125,34.625 126.75,60.208c33.625,25.542 58.625,55.917 75,91.125c16.375,35.208 24.542,73.208 24.542,114c0,66.792 -21.083,125.333 -63.208,175.542c48.416,28.708 84.5,65.916 108.291,111.625c23.75,45.75 35.625,97.75 35.625,156.041c0,48.875 -8.166,93.042 -24.541,132.5c-16.375,39.459 -41.25,73.209 -74.667,101.209c-33.417,28.041 -75.542,49.541 -126.417,64.541c-50.875,15.042 -110.875,22.542 -179.875,22.542l-642.25,0l0,-1051.21Zm643.625,403.541c18.375,0 36.334,0.667 53.792,2c30.042,-28.666 45.042,-61.416 45.042,-98.166c-0,-38.125 -14.917,-67.584 -44.709,-88.417c-29.833,-20.833 -73.416,-31.292 -130.791,-31.292l-353.75,0l-0,215.875l430.416,0Zm4,462c57.375,0 101,-12.333 130.792,-37c29.792,-24.666 44.708,-59.416 44.708,-104.25c0,-44.833 -14.916,-79.791 -44.708,-104.916c-29.833,-25.125 -73.417,-37.667 -130.792,-37.667l-434.458,-0l-0,283.792l434.458,-0l0,0.041Z" style="fill:#fff;fill-rule:nonzero;"/><path d="M7226.5,2614l614.667,-639.542l213.166,0l0,639.542l226.625,0l0,186.958l-226.625,0l0,224.625l-213.166,0l-0,-224.625l-616,0l1.333,-186.958Zm614.667,0l-0,-369.875l-359.125,369.875l359.125,0Z" style="fill:#fff;fill-rule:nonzero;"/><g><path d="M8562.71,1974.42l534.625,-0c80.709,-0 150.625,8.416 209.834,25.208c59.166,16.792 108.291,41.125 147.291,72.958c39,31.834 68.042,70.625 87.084,116.334c19.041,45.708 28.583,97.5 28.583,155.333c0,39 -4.708,76.125 -14.125,111.292c-9.417,35.208 -23.875,67.583 -43.375,97.166c-19.5,29.584 -44.042,55.917 -73.625,79c-29.583,23.084 -64.333,42.25 -104.25,57.5l228.667,336.25l-260.917,0l-197.708,-298.583l-6.042,-0l-322.792,-0.667l0,299.25l-213.166,0l-0,-1051.04l-0.084,-0Zm540.042,567.625c40.333,-0 75.667,-4.709 105.917,-14.125c30.25,-9.417 55.583,-22.625 76,-39.667c20.416,-17.042 35.625,-37.75 45.75,-62.208c10.083,-24.417 15.125,-51.667 15.125,-81.709c-0,-58.708 -20.167,-104.125 -60.542,-136.166c-40.333,-32.042 -101.125,-48.084 -182.25,-48.084l-326.833,0l-0,382l326.833,0l-0,-0.041Z" style="fill:#fff;fill-rule:nonzero;"/><path d="M9877.42,1974.42l895.125,-0l-0,186.958l-681.917,-0l0,209.833l603.917,0l-0,175.542l-603.917,-0l0,292.542l696.042,-0l-0,186.291l-909.25,0l-0,-1051.17Z" style="fill:#fff;fill-rule:nonzero;"/><path d="M11436.9,1974.42l225.958,-0l508.417,1051.12l-223.959,-0l-84.083,-176.875l-614,-0l-81.375,176.875l-224.625,-0l493.667,-1051.12Zm342.291,698.75l-227.291,-477.5l-221.25,477.5l448.541,-0Z" style="fill:#fff;fill-rule:nonzero;"/><path d="M12389.8,1974.42l213.208,-0l0,864.166l611.292,0l0,186.959l-824.5,-0l0,-1051.12Z" style="fill:#fff;fill-rule:nonzero;"/></g></g></g><g><g><g><g><path d="M5258.38,1842.62c159.708,178.167 249.625,409.917 249.625,651.167c0,214.5 -69.583,413 -187.25,574.25l-138.708,-122.875c89.208,-128.125 141.625,-283.75 141.625,-451.375c-0,-52.417 -5.209,-104.875 -15.5,-156c-30.584,23.125 -66.25,39.916 -105.042,48.333c5.792,35.458 8.583,71.625 8.583,107.667c0,158.875 -54.791,305.166 -146.416,421.041c-0.292,0.292 -0.584,0.584 -0.875,0.875c-1.5,1.709 -2.834,3.459 -4.084,5.25c-112.166,138.5 -277.5,232.25 -464.583,249.834c-15.417,-50.5 -62.375,-87.209 -117.917,-87.209c-68.083,0 -123.291,55.209 -123.291,123.334c-0,68.125 55.208,123.291 123.291,123.291c38.584,0 73.042,-17.75 95.625,-45.5c212.084,-11.083 402.375,-106.083 538.25,-252.291l137.959,122.208c-178.584,193.875 -434.375,315.542 -718.042,315.542c-70.333,-0 -139.75,-7.459 -207.667,-22.209c-6.333,38.417 -20.708,74.084 -41.625,105.25c63.292,15.084 127.917,24.125 193.209,27.417l-0,1.75c20.166,1.125 40.458,1.75 60.916,1.75c17.125,-0 34.125,-0.458 51,-1.25l0,-2.208c574.167,-29.209 1032.46,-505.584 1032.46,-1086.92c-0,-46.292 -3,-92.208 -8.834,-137.583c-30.541,-230.375 -133.416,-437.917 -285.083,-599.042c-16.625,32.833 -39.667,62.042 -67.625,85.5Z" style="fill:#eccc5d;fill-rule:nonzero;"/></g><path d="M5148.29,1997.04c-114.917,-143.292 -273.584,-240.542 -451.125,-278l-0,-187.459c90.791,15.584 178.75,44 261.583,84.5c-0.583,4.875 -0.958,9.792 -0.958,14.834c-0,26.25 8,50.625 21.708,70.791c22,33.709 60,56 103.25,56c13.25,0 25.958,-2.166 37.917,-6.041c0.5,-0.167 1.041,-0.292 1.541,-0.459c1.375,-0.458 2.75,-1 4.084,-1.5c48.875,-17.416 83.916,-63.958 83.916,-118.791c0,-69.709 -56.5,-126.209 -126.208,-126.209c-26.125,0 -50.375,7.917 -70.5,21.542c-143.958,-70.667 -305.833,-110.375 -477,-110.375c-598.75,0 -1084.12,485.375 -1084.12,1084.12c-0,372.042 187.458,700.25 473.042,895.458c-0.209,2.834 -0.417,5.667 -0.417,8.542c-0,69.708 56.5,126.208 126.208,126.208c46.542,0 87.125,-25.291 109,-62.791c0.292,-0.459 0.542,-0.917 0.834,-1.375c0.5,-0.875 1.041,-1.75 1.5,-2.667c10.166,-17.917 16.041,-38.583 16.041,-60.625c0,-47.875 -27.333,-89.25 -67.166,-109.708c-17.917,-9.75 -38.417,-15.25 -60.209,-15.25c-26.083,-0 -50.333,7.916 -70.458,21.5c-170.833,-117.334 -299.417,-285.709 -368.458,-478.292l171.833,-64.792c70.5,200.875 220.417,368.417 421.375,459.292c-0.167,-2.792 -0.167,-5.792 -0.167,-8.583c0,-37.334 7.667,-72.959 21.25,-105.417c-176.125,-88.417 -302.916,-246.833 -352.333,-432.833c-0.042,-0.125 -0.042,-0.209 -0.083,-0.334c-14.875,-56.083 -22.792,-114.625 -22.792,-174.541c-0,-78.542 13.167,-154.875 39.25,-227.667c2.292,0.125 4.542,0.333 6.833,0.333c68.084,0 123.334,-55.208 123.334,-123.333c-0,-68.083 -55.209,-123.292 -123.334,-123.292c-68.083,0 -123.291,55.209 -123.291,123.292c-0,23.833 6.875,46.042 18.583,64.875c-35.333,91 -53.333,186.958 -53.333,285.75c-0,52.375 5.25,103.833 15.125,153.917l-174.042,65.625c-16.583,-71.167 -25.417,-144.75 -25.417,-219.542c0,-235.125 83.542,-451.083 222.5,-619.792c0.084,-0.125 0.209,-0.25 0.334,-0.375c0.041,-0.041 0.083,-0.083 0.083,-0.166c179.25,-217.334 450.458,-356.084 753.5,-356.084c17.958,0 35.833,0.667 53.667,1.625l-0,184.584c-17.75,-1.167 -35.625,-1.792 -53.584,-1.792c-191.041,0 -375.041,69.042 -519.25,194.25c35.25,16.417 66.417,40.292 91.417,69.417c120.917,-98.125 271.458,-151.709 427.833,-151.709c200.084,0 384.875,85.834 513.042,234.042c-14.833,20.333 -23.667,45.333 -23.667,72.417c0,68.125 55.209,123.333 123.292,123.333c68.083,0 123.292,-55.208 123.292,-123.333c0.083,-66.75 -53,-121 -119.25,-123.125Z" style="fill:#eccc5d;fill-rule:nonzero;"/></g><g><g><g><path d="M4816.75,2752.83l0,-420.375c-25.833,-14.041 -50.75,-27.666 -75.75,-41.125c-62.417,-33.583 -125.042,-66.833 -187.25,-100.75c-11.917,-6.5 -21.417,-7.166 -33.875,-0.333c-81.042,44.208 -162.542,87.542 -243.875,131.167c-5.792,3.125 -11.375,6.541 -19,10.958l0,419.375c-7.042,0.917 -11.875,2.083 -16.75,2.083c-36.75,0.167 -73.458,0.209 -110.208,0.042c-18.209,-0.083 -25.375,-6.917 -25.375,-24.833c-0.125,-123.959 -0.167,-247.959 -0.042,-371.917c-0,-18.083 7.125,-25.083 25.125,-25.208c35.708,-0.209 71.417,-0 107.125,-0.167c5.875,-0.042 11.75,-1.125 18.792,-1.875c0.5,-7.333 1.291,-13.292 1.291,-19.208c0.125,-43.875 0.25,-87.75 -0.041,-131.625c-0.084,-12.959 4.208,-21.917 16.291,-28.334c84.167,-44.75 168.042,-90 252.042,-135c3.125,-1.666 6.5,-2.791 11.792,-5.083c19.166,10.125 39.416,20.667 59.5,31.417c67.416,36.083 134.625,72.5 202.25,108.208c12.541,6.625 17.541,15.458 17.416,29.167c-0.375,43.875 -0.125,87.75 -0.125,131.625l0,18.208c7.292,1 13.084,2.417 18.875,2.458c35.209,0.209 70.417,0 105.584,0.125c21.041,0.084 27.208,6.334 27.208,27.584c0.042,122.458 0.083,244.875 -0,367.333c-0,20.958 -6.375,27.125 -27.542,27.208c-35.708,0.084 -71.416,0.042 -107.125,0c-4.458,-0.083 -8.958,-0.625 -16.333,-1.125Z" style="fill:#fff;fill-rule:nonzero;"/><path d="M4259.04,2754.83l554.583,0c0.875,6.417 2.333,12.209 2.375,18c0.208,34.667 0.208,69.375 0.083,104.084c-0.083,21.791 -6.75,28.583 -28.083,28.625c-167.833,0.041 -335.625,0.041 -503.458,-0c-20.792,-0 -27.417,-6.542 -27.5,-27.334c-0.167,-35.208 -0.125,-70.416 0.041,-105.583c0,-5.458 1.125,-10.833 1.959,-17.792Z" style="fill:#fff;fill-rule:nonzero;"/></g></g></g></g></g></g></svg>